<?xml version="1.0" standalone="no"?>
<!DOCTYPE svg PUBLIC "-//W3C//DTD SVG 20010904//EN"
 "http://www.w3.org/TR/2001/REC-SVG-20010904/DTD/svg10.dtd">
<svg version="1.0" xmlns="http://www.w3.org/2000/svg"
 width="720.000000pt" height="720.000000pt" viewBox="0 0 720.000000 720.000000"
 preserveAspectRatio="xMidYMid meet">
<metadata>
Created by potrace 1.14, written by Peter Selinger 2001-2017
</metadata>
<g transform="translate(0.000000,720.000000) scale(0.100000,-0.100000)"
fill="#000000" stroke="none">
<path d="M1247 6923 c-3 -2 -20 -7 -39 -9 -18 -3 -53 -9 -78 -15 -25 -5 -54
-11 -65 -13 -47 -10 -211 -69 -217 -80 -4 -6 -8 -8 -8 -3 0 20 -227 -116 -325
-196 -104 -84 -295 -301 -295 -335 0 -5 -4 -12 -9 -14 -17 -6 -114 -212 -143
-303 -47 -151 -63 -262 -62 -440 0 -171 6 -265 17 -265 4 0 7 -6 6 -12 -4 -21
18 -110 52 -210 39 -114 125 -283 166 -326 7 -7 13 -17 13 -21 0 -25 178 -214
275 -292 137 -110 379 -232 525 -263 14 -3 45 -10 70 -16 75 -16 169 -24 285
-24 103 0 230 10 245 19 6 4 34 10 85 20 38 7 60 14 130 40 39 15 85 32 103
38 17 5 32 14 32 17 0 4 15 13 33 20 29 12 165 96 177 111 16 18 189 143 221
159 72 37 128 23 212 -55 65 -61 134 -115 145 -115 6 0 12 -4 14 -8 4 -10 138
-91 188 -114 290 -133 579 -165 903 -103 44 9 188 55 237 77 71 31 180 88 190
99 3 3 23 16 45 29 22 13 42 26 45 29 3 4 31 26 62 49 31 24 58 47 60 51 2 4
21 21 43 38 54 43 109 51 166 26 36 -17 202 -132 219 -153 8 -10 158 -110 166
-110 3 0 19 -9 35 -21 16 -11 29 -17 29 -13 0 4 8 0 17 -8 16 -13 120 -57 148
-62 6 -1 15 -4 20 -7 10 -6 88 -25 135 -33 14 -3 25 -5 25 -6 0 -1 25 -4 55
-7 115 -13 424 -4 450 12 4 3 23 7 41 9 81 11 305 94 369 136 8 6 27 15 43 21
15 6 27 15 27 20 0 5 5 9 10 9 10 0 90 56 143 99 35 29 153 148 177 181 14 17
30 37 37 44 45 49 158 249 194 344 5 12 13 32 18 45 8 19 22 60 26 77 1 3 7
25 14 50 46 159 63 399 39 555 -4 33 -10 72 -13 86 -2 15 -11 53 -20 85 -9 33
-18 66 -20 74 -7 27 -32 94 -56 145 -12 28 -23 53 -23 56 -2 15 -94 161 -141
224 -50 68 -159 183 -221 235 -43 37 -137 105 -154 113 -8 4 -28 16 -45 26
-105 68 -319 147 -450 168 -16 2 -41 7 -55 10 -14 3 -93 7 -176 8 -148 3 -274
-12 -388 -45 -21 -7 -46 -13 -56 -15 -10 -2 -38 -13 -63 -24 -25 -12 -48 -21
-52 -21 -9 0 -139 -64 -145 -71 -3 -3 -21 -14 -40 -24 -34 -17 -90 -54 -100
-66 -3 -3 -15 -12 -27 -20 -12 -8 -52 -42 -89 -74 -124 -110 -176 -108 -334
15 -193 150 -385 263 -487 285 -6 2 -27 8 -45 13 -18 6 -58 15 -88 21 -30 6
-71 13 -90 17 -53 10 -357 10 -420 0 -30 -5 -64 -10 -75 -12 -11 -1 -21 -3
-22 -4 -2 -2 -6 -3 -10 -4 -104 -23 -240 -73 -270 -97 -7 -6 -13 -9 -13 -5 0
9 -148 -83 -215 -134 -33 -25 -88 -67 -122 -93 -141 -108 -203 -109 -314 -6
-73 68 -249 197 -249 183 0 -4 -8 0 -17 8 -15 13 -107 59 -178 88 -18 8 -123
43 -135 45 -3 1 -25 5 -50 9 -25 5 -49 11 -54 14 -5 3 -23 7 -40 9 -56 6 -374
11 -379 6z"/>
<path d="M2425 4039 c-44 -32 -83 -58 -86 -59 -4 0 -36 -17 -70 -38 -110 -66
-314 -146 -459 -181 -100 -23 -122 -27 -220 -36 -41 -4 -77 -8 -80 -10 -3 -2
-5 -533 -5 -1182 l0 -1178 2090 -1 c1150 -1 2092 2 2095 6 3 5 5 536 5 1181 0
1163 0 1172 -20 1175 -42 6 -111 15 -150 19 -22 3 -58 9 -80 14 -22 5 -51 12
-65 15 -63 14 -116 30 -124 37 -6 5 -17 9 -26 9 -20 0 -170 63 -258 108 -34
18 -111 66 -171 106 -103 70 -111 73 -128 57 -77 -69 -292 -191 -445 -252 -45
-17 -208 -66 -253 -75 -139 -28 -237 -38 -365 -38 -104 0 -266 10 -278 18 -4
2 -28 7 -55 10 -26 4 -57 10 -70 15 -12 5 -26 9 -32 10 -5 1 -19 4 -31 7 -11
3 -29 7 -40 9 -10 2 -20 4 -21 5 -2 2 -6 3 -10 5 -5 1 -17 5 -28 9 -11 5 -55
21 -98 38 -79 29 -210 95 -259 129 -14 11 -29 19 -32 19 -6 0 -65 39 -76 50
-3 3 -21 17 -40 31 l-36 27 -79 -59z"/>
<path d="M1506 980 c-1 -3 -2 -165 -2 -360 l1 -355 2095 0 2095 0 0 358 c0
350 0 357 -20 358 -69 4 -4167 3 -4169 -1z"/>
</g>
</svg>
