<?xml version="1.0" encoding="utf-8"?>
<svg viewBox="252.419 18.72 420 42.129" xmlns="http://www.w3.org/2000/svg">
  <defs>
    <linearGradient x1="65" y1="235" x2="485" y2="235" gradientUnits="userSpaceOnUse" id="color-1217662301">
      <stop offset="0" stop-color="#7b4397"/>
      <stop offset="1" stop-color="#dc2430"/>
    </linearGradient>
  </defs>
  <g fill="url(#color-1217662301)" fill-rule="none" stroke="none" stroke-width="1" stroke-linecap="butt" stroke-linejoin="miter" stroke-miterlimit="10" stroke-dasharray="" stroke-dashoffset="0" font-family="none" font-weight="none" font-size="none" text-anchor="none" style="mix-blend-mode: normal" transform="matrix(1, 0, 0, 1, 187.419159, -195.215027)">
    <g data-paper-data="{&quot;isGlobalGroup&quot;:true,&quot;bounds&quot;:{&quot;x&quot;:64.99999999999999,&quot;y&quot;:213.93551254829893,&quot;width&quot;:419.99999999999994,&quot;height&quot;:42.12897490340217}}">
      <g data-paper-data="{&quot;isPrimaryText&quot;:true}" fill-rule="nonzero" id="element-id-55047">
        <path d="M177.91792,252.30741c-4.43056,0 -8.31582,-1.77222 -16.90428,-14.92757c4.49872,-1.43141 8.72479,-4.83953 8.72479,-10.83783c0,-6.47543 -5.86197,-9.40642 -12.74638,-9.40642c-2.52201,0 -5.11218,0.34081 -7.63419,0.34081c-2.45385,0 -4.70321,-0.20449 -6.40727,-0.20449c-0.27265,0 -0.20449,0.74979 0,0.74979c3.61261,0 4.3624,0.68162 4.3624,3.88526v26.51519c0,3.2718 -0.68162,3.88526 -4.3624,3.88526c-0.27265,0 -0.20449,0.74979 0,0.74979c1.70406,0 4.02158,-0.13632 6.47543,-0.13632c2.65834,0 4.9077,0.13632 6.67992,0.13632c0.20449,0 0.20449,-0.74979 0,-0.74979c-3.68077,0 -4.29423,-0.61346 -4.29423,-3.88526v-10.83783c1.22692,0.20449 3.74893,0.47714 4.56688,0.47714h0.68162c7.08889,11.92843 11.51945,14.99574 13.29168,14.99574h7.56603c0.27265,0 0.20449,-0.74979 0,-0.74979zM155.69696,237.10719c-0.47714,0 -2.93098,-0.34081 -3.95342,-0.47714v-14.58676c0.06816,-3.61261 0.74979,-3.95342 4.15791,-3.95342c4.49872,0 8.86112,3.47628 8.86112,9.6109c0,6.54359 -4.49872,9.40642 -9.0656,9.40642z" data-paper-data="{&quot;glyphName&quot;:&quot;R&quot;,&quot;glyphIndex&quot;:0,&quot;firstGlyphOfWord&quot;:true,&quot;word&quot;:1}" id="element-id-26864"/>
        <path d="M214.00993,252.23925c-3.68077,0 -4.29423,-0.61346 -4.3624,-3.95342v-26.37886c0.06816,-3.2718 0.61346,-4.08975 4.3624,-4.08975c0.20449,0 0.20449,-0.68162 0,-0.68162c-1.70406,0 -3.95342,0.20449 -6.67992,0.20449c-2.59017,0 -4.83953,-0.20449 -6.61176,-0.20449c-0.20449,0 -0.13632,0.68162 0,0.68162c3.68077,0 4.43056,0.68162 4.43056,3.95342v26.51519c0.06816,3.33996 -0.61346,3.95342 -4.43056,3.95342c-0.13632,0 -0.13632,0.68162 0.06816,0.68162c1.84039,0 4.08975,-0.13632 6.61176,-0.13632c2.79466,0 4.83953,0.13632 6.67992,0.13632c0.13632,0 0.13632,-0.68162 -0.06816,-0.68162z" data-paper-data="{&quot;glyphName&quot;:&quot;I&quot;,&quot;glyphIndex&quot;:1,&quot;word&quot;:1}" id="element-id-98497"/>
        <path d="M268.98294,241.12877c-0.61346,5.99829 -4.63505,10.63334 -12.40556,10.63334c-9.81539,0 -13.49616,-8.31582 -14.31411,-16.42715c-0.88611,-8.11133 3.40812,-17.31326 14.04146,-17.31326c7.77052,0 10.42885,5.24851 11.58761,11.17864h1.0906v-12.13291h-0.81795c-0.20449,1.15876 -0.74979,1.77222 -2.24936,1.77222c-2.04487,0 -4.97586,-1.77222 -10.22437,-1.77222c-11.86026,0 -18.47202,8.58847 -18.47202,17.7904c0,9.40642 6.06646,18.06305 18.13121,18.06305c8.99744,0 14.24595,-4.70321 14.85941,-11.72394z" data-paper-data="{&quot;glyphName&quot;:&quot;C&quot;,&quot;glyphIndex&quot;:2,&quot;word&quot;:1}" id="element-id-11619"/>
        <path d="M321.63842,244.19608c-1.36325,4.56688 -4.49872,7.63419 -8.24766,7.63419h-5.24851c-3.54445,0 -4.22607,-0.61346 -4.22607,-3.74893v-13.15535h8.11133c3.54445,0 5.18035,1.49957 5.18035,4.9077c0,0.13632 0.20449,0.27265 0.40897,0.27265c0.13632,0 0.34081,-0.13632 0.34081,-0.27265c0,-2.11304 -0.13632,-3.68077 -0.13632,-5.52116c0,-1.43141 0.06816,-2.45385 0,-4.83953c0.06816,-0.13632 -0.13632,-0.20449 -0.68162,0c0.06816,3.06731 -1.36325,4.15791 -4.83953,4.15791h-8.38398v-11.7921c0.13632,-3.13547 0.5453,-3.74893 4.29423,-3.74893h3.8171c3.88526,0 6.67992,2.79466 7.22522,6.81624c0.06816,0.13632 0.20449,0.20449 0.74979,0l-0.13632,-7.22522c0,-0.40897 -0.13632,-0.5453 -0.47714,-0.5453h-24.33399c-0.20449,0 -0.20449,0.68162 0.06816,0.68162c3.61261,0 4.29423,0.68162 4.3624,3.95342v26.51519c0,3.33996 -0.5453,3.95342 -4.3624,3.95342c-0.20449,0 -0.20449,0.68162 0.06816,0.68162h25.7654c0.68162,0 0.95427,-0.20449 0.95427,-0.88611c0,-2.45385 0.13632,-5.65748 0.47714,-7.70236c0.06816,-0.13632 -0.20449,-0.27265 -0.74979,-0.13632z" data-paper-data="{&quot;glyphName&quot;:&quot;E&quot;,&quot;glyphIndex&quot;:3,&quot;word&quot;:1}" id="element-id-76831"/>
        <path d="M377.22489,216.99927c-0.27265,1.15876 -1.43141,1.43141 -3.68077,1.43141c-2.79466,0 -5.86197,0.13632 -10.63334,0.13632c-3.88526,0 -8.17949,-0.06816 -11.17864,-0.13632c-0.88611,0 -2.45385,-0.06816 -2.45385,-1.15876c0,-0.13632 -0.20449,-0.20449 -0.74979,-0.06816c-0.13632,2.52201 -0.5453,8.38398 -0.81795,10.29253c-0.06816,0.13632 0.20449,0.20449 0.68162,0.06816c0.61346,-5.31667 3.2718,-8.11133 7.77052,-8.11133h1.22692c2.79466,0 3.47628,0.61346 3.40812,3.40812v25.49275c0.06816,3.20363 -0.74979,3.8171 -4.9077,3.8171c-0.13632,0 -0.13632,0.61346 0.06816,0.61346h14.04146c0.20449,0 0.20449,-0.61346 0,-0.61346c-4.22607,0 -4.83953,-0.61346 -4.83953,-3.8171l-0.13632,-25.35643c0.06816,-2.79466 0.40897,-3.54445 3.20363,-3.54445h1.22692c4.9077,0 7.29338,2.79466 7.29338,7.97501c0,0.13632 0.20449,0.20449 0.68162,0.06816c-0.06816,-1.84039 0.27265,-8.24766 0.47714,-10.36069c0,-0.13632 -0.20449,-0.27265 -0.68162,-0.13632z" data-paper-data="{&quot;glyphName&quot;:&quot;T&quot;,&quot;glyphIndex&quot;:4,&quot;word&quot;:1}" id="element-id-47305"/>
        <path d="M432.12973,216.99927c-0.27265,1.15876 -1.43141,1.43141 -3.68077,1.43141c-2.79466,0 -5.86197,0.13632 -10.63334,0.13632c-3.88526,0 -8.17949,-0.06816 -11.17864,-0.13632c-0.88611,0 -2.45385,-0.06816 -2.45385,-1.15876c0,-0.13632 -0.20449,-0.20449 -0.74979,-0.06816c-0.13632,2.52201 -0.5453,8.38398 -0.81795,10.29253c-0.06816,0.13632 0.20449,0.20449 0.68162,0.06816c0.61346,-5.31667 3.2718,-8.11133 7.77052,-8.11133h1.22692c2.79466,0 3.47628,0.61346 3.40812,3.40812v25.49275c0.06816,3.20363 -0.74979,3.8171 -4.9077,3.8171c-0.13632,0 -0.13632,0.61346 0.06816,0.61346h14.04146c0.20449,0 0.20449,-0.61346 0,-0.61346c-4.22607,0 -4.83953,-0.61346 -4.83953,-3.8171l-0.13632,-25.35643c0.06816,-2.79466 0.40897,-3.54445 3.20363,-3.54445h1.22692c4.9077,0 7.29338,2.79466 7.29338,7.97501c0,0.13632 0.20449,0.20449 0.68162,0.06816c-0.06816,-1.84039 0.27265,-8.24766 0.47714,-10.36069c0,-0.13632 -0.20449,-0.27265 -0.68162,-0.13632z" data-paper-data="{&quot;glyphName&quot;:&quot;T&quot;,&quot;glyphIndex&quot;:5,&quot;word&quot;:1}" id="element-id-73412"/>
        <path d="M484.23992,244.19608c-1.36325,4.56688 -4.49872,7.63419 -8.24766,7.63419h-5.24851c-3.54445,0 -4.22607,-0.61346 -4.22607,-3.74893v-13.15535h8.11133c3.54445,0 5.18035,1.49957 5.18035,4.9077c0,0.13632 0.20449,0.27265 0.40897,0.27265c0.13632,0 0.34081,-0.13632 0.34081,-0.27265c0,-2.11304 -0.13632,-3.68077 -0.13632,-5.52116c0,-1.43141 0.06816,-2.45385 0,-4.83953c0.06816,-0.13632 -0.13632,-0.20449 -0.68162,0c0.06816,3.06731 -1.36325,4.15791 -4.83953,4.15791h-8.38398v-11.7921c0.13632,-3.13547 0.5453,-3.74893 4.29423,-3.74893h3.8171c3.88526,0 6.67992,2.79466 7.22522,6.81624c0.06816,0.13632 0.20449,0.20449 0.74979,0l-0.13632,-7.22522c0,-0.40897 -0.13632,-0.5453 -0.47714,-0.5453h-24.33399c-0.20449,0 -0.20449,0.68162 0.06816,0.68162c3.61261,0 4.29423,0.68162 4.3624,3.95342v26.51519c0,3.33996 -0.5453,3.95342 -4.3624,3.95342c-0.20449,0 -0.20449,0.68162 0.06816,0.68162h25.7654c0.68162,0 0.95427,-0.20449 0.95427,-0.88611c0,-2.45385 0.13632,-5.65748 0.47714,-7.70236c0.06816,-0.13632 -0.20449,-0.27265 -0.74979,-0.13632z" data-paper-data="{&quot;glyphName&quot;:&quot;E&quot;,&quot;glyphIndex&quot;:6,&quot;lastGlyphOfWord&quot;:true,&quot;word&quot;:1}" id="element-id-59175"/>
      </g>
      <g data-paper-data="{&quot;fillRule&quot;:&quot;evenodd&quot;,&quot;fillRuleOriginal&quot;:&quot;evenodd&quot;,&quot;isIcon&quot;:true,&quot;iconStyle&quot;:&quot;standalone&quot;,&quot;selectedEffects&quot;:{&quot;container&quot;:&quot;&quot;,&quot;transformation&quot;:&quot;&quot;,&quot;pattern&quot;:&quot;&quot;},&quot;bounds&quot;:{&quot;x&quot;:64.99999999999999,&quot;y&quot;:213.93551254829893,&quot;width&quot;:45.459081089156925,&quot;height&quot;:42.12897490340217},&quot;iconType&quot;:&quot;icon&quot;,&quot;rawIconId&quot;:&quot;1717466&quot;,&quot;isDetailed&quot;:false,&quot;suitableAsStandaloneIcon&quot;:true}" fill-rule="evenodd" id="element-id-5104">
        <path d="M77.16466,231.28229c1.07858,-0.43692 1.81633,-1.01882 2.39402,-1.47445c0.83413,-0.65786 1.3345,-1.0525 2.04517,-0.36762c3.43172,3.30704 8.81522,3.30979 12.24624,0.00018c0.70991,-0.68471 1.2721,-0.24744 2.15506,0.43926c1.14262,0.88863 2.82234,2.195 6.05423,2.02775c7.61821,-0.39423 11.22883,-9.84444 5.7917,-15.34619c-3.41178,-3.45201 -8.91347,-3.49944 -12.39186,-0.14474c-0.7126,0.68722 -1.25374,0.26241 -2.1188,-0.41657c-1.06753,-0.83793 -2.6283,-2.06301 -5.6131,-2.06301c-2.98597,0 -4.54645,1.22531 -5.6138,2.06342c-0.86471,0.67903 -1.40573,1.10379 -2.11874,0.41663c-5.60251,-5.39999 -14.99477,-1.42421 -14.99477,6.5115c0,6.44489 6.435,10.67629 12.16466,8.35386zM80.79931,231.81974c-1.79282,1.42994 -3.98011,2.28027 -6.29985,2.41039v14.93547h26.45501v-14.93547c-2.31928,-0.12989 -4.50767,-0.98004 -6.29985,-2.41022c-4.05865,3.23791 -9.79684,3.23768 -13.85531,-0.00018zM100.95447,256.06449v-4.57136h-26.45501v4.57136z" data-paper-data="{&quot;isPathIcon&quot;:true}" id="element-id-85242"/>
      </g>
    </g>
  </g>
  <rect data-element-id="element-id-55047" stroke-width="2" fill="transparent" class="invisible-element-box grouping-element" x="143" y="217" width="342" height="36" data-element-name="isPrimaryText" transform="matrix(1, 0, 0, 1, 187.419159, -195.215027)"/>
  <rect data-element-id="element-id-5104" stroke-width="2" fill="transparent" class="invisible-element-box grouping-element" x="65" y="214" width="45" height="42" data-element-name="isIcon" transform="matrix(1, 0, 0, 1, 187.419159, -195.215027)"/>
  <rect data-element-id="element-id-85242" stroke-width="2" fill="transparent" class="invisible-element-box individual-element" x="65" y="214" width="45" height="42" transform="matrix(1, 0, 0, 1, 187.419159, -195.215027)"/>
  <rect data-element-id="element-id-26864" stroke-width="2" fill="transparent" class="invisible-element-box individual-element" x="143" y="217" width="35" height="36" transform="matrix(1, 0, 0, 1, 187.419159, -195.215027)"/>
  <rect data-element-id="element-id-11619" stroke-width="2" fill="transparent" class="invisible-element-box individual-element" x="237" y="217" width="33" height="36" transform="matrix(1, 0, 0, 1, 187.419159, -195.215027)"/>
  <rect data-element-id="element-id-47305" stroke-width="2" fill="transparent" class="invisible-element-box individual-element" x="348" y="217" width="30" height="36" transform="matrix(1, 0, 0, 1, 187.419159, -195.215027)"/>
  <rect data-element-id="element-id-73412" stroke-width="2" fill="transparent" class="invisible-element-box individual-element" x="403" y="217" width="30" height="36" transform="matrix(1, 0, 0, 1, 187.419159, -195.215027)"/>
  <rect data-element-id="element-id-76831" stroke-width="2" fill="transparent" class="invisible-element-box individual-element" x="295" y="217" width="27" height="36" transform="matrix(1, 0, 0, 1, 187.419159, -195.215027)"/>
  <rect data-element-id="element-id-59175" stroke-width="2" fill="transparent" class="invisible-element-box individual-element" x="458" y="217" width="27" height="36" transform="matrix(1, 0, 0, 1, 187.419159, -195.215027)"/>
  <rect data-element-id="element-id-98497" stroke-width="2" fill="transparent" class="invisible-element-box individual-element" x="201" y="217" width="14" height="36" transform="matrix(1, 0, 0, 1, 187.419159, -195.215027)"/>
</svg>